<?xml version="1.0" standalone="no"?>
<!DOCTYPE svg PUBLIC "-//W3C//DTD SVG 20010904//EN"
 "http://www.w3.org/TR/2001/REC-SVG-20010904/DTD/svg10.dtd">
<svg version="1.0" xmlns="http://www.w3.org/2000/svg"
 width="512.000000pt" height="512.000000pt" viewBox="0 0 512.000000 512.000000"
 preserveAspectRatio="xMidYMid meet">

<g transform="translate(0.000000,512.000000) scale(0.100000,-0.100000)"
fill="#000000" stroke="none">
<path d="M3692 5097 c-22 -23 -22 -25 -22 -460 l0 -437 -543 0 c-452 0 -552
-3 -594 -15 -69 -21 -838 -397 -893 -437 -85 -63 -106 -104 -273 -526 -86
-219 -157 -413 -157 -430 0 -33 38 -72 71 -72 46 0 67 41 220 430 83 211 157
396 165 411 24 48 76 81 273 176 106 52 195 92 196 91 2 -2 -74 -95 -167 -208
-228 -275 -245 -298 -268 -365 -20 -57 -20 -84 -20 -1438 0 -1099 -3 -1378
-12 -1374 -180 74 -804 361 -832 382 -82 62 -127 160 -128 273 0 72 2 78 262
726 206 513 261 659 256 680 -4 17 -19 32 -40 42 -29 14 -37 15 -62 3 -26 -13
-51 -69 -281 -639 -139 -344 -260 -650 -269 -680 -39 -127 -11 -293 69 -412
77 -114 107 -132 628 -363 l474 -210 80 -81 c86 -88 163 -132 263 -153 74 -15
1980 -15 2054 0 187 39 342 184 406 379 16 49 30 509 18 575 -14 71 -80 99
-123 52 -20 -21 -21 -35 -25 -292 -4 -250 -6 -274 -26 -327 -30 -75 -79 -137
-144 -180 -104 -72 -52 -69 -1154 -66 l-989 3 -66 32 c-79 39 -140 102 -177
181 l-27 57 -3 1378 c-2 1336 -2 1380 17 1420 16 36 515 651 604 745 18 19 50
43 72 55 39 22 48 22 578 25 407 2 537 0 537 -9 0 -7 -16 -45 -36 -86 -42 -89
-141 -193 -222 -236 l-52 -28 -49 43 c-79 71 -167 86 -256 44 -91 -43 -135
-112 -135 -211 0 -97 47 -171 135 -211 87 -41 175 -27 250 38 30 27 50 56 62
90 16 44 24 53 68 75 144 73 262 188 330 326 l44 88 114 -138 c63 -76 196
-237 296 -358 100 -121 192 -240 204 -265 l22 -45 3 -940 2 -939 22 -23 c38
-41 98 -26 117 28 14 41 15 1786 1 1873 -18 112 -52 162 -370 546 -166 201
-318 378 -338 394 l-37 29 3 441 c2 243 0 456 -3 474 -13 68 -80 95 -123 49z
m-517 -1470 c57 -49 20 -147 -56 -147 -43 0 -79 39 -79 85 0 74 80 110 135 62z"/>
<path d="M2545 2561 c-100 -26 -190 -104 -224 -194 -45 -122 -18 -261 68 -347
72 -71 128 -94 236 -94 79 -1 97 2 147 27 195 96 242 351 93 515 -54 60 -130
94 -218 98 -40 2 -85 0 -102 -5z m161 -160 c129 -59 129 -253 0 -312 -124 -56
-256 24 -256 156 0 132 132 212 256 156z"/>
<path d="M3058 1902 c-625 -624 -658 -659 -658 -693 0 -44 34 -79 75 -79 26 0
117 87 678 648 357 356 655 660 662 676 15 35 3 81 -25 96 -56 30 -39 46 -732
-648z"/>
<path d="M3525 1771 c-100 -26 -190 -104 -224 -194 -45 -122 -18 -261 68 -347
72 -71 128 -94 236 -94 79 -1 97 2 147 27 195 96 242 351 93 515 -54 60 -130
94 -218 98 -40 2 -85 0 -102 -5z m161 -160 c129 -59 129 -253 0 -312 -124 -56
-256 24 -256 156 0 132 132 212 256 156z"/>
</g>
</svg>
