<?xml version="1.0" standalone="no"?>
<!DOCTYPE svg PUBLIC "-//W3C//DTD SVG 20010904//EN"
 "http://www.w3.org/TR/2001/REC-SVG-20010904/DTD/svg10.dtd">
<svg version="1.0" xmlns="http://www.w3.org/2000/svg"
 width="800.000000pt" height="800.000000pt" viewBox="0 0 800.000000 800.000000"
 preserveAspectRatio="xMidYMid meet">

<g transform="translate(0.000000,800.000000) scale(0.100000,-0.100000)"
fill="#000000" stroke="none">
<path d="M3780 7993 c-333 -19 -744 -100 -1055 -207 -430 -147 -804 -346
-1155 -614 -246 -188 -562 -505 -746 -747 -320 -421 -564 -924 -695 -1435 -45
-176 -63 -271 -89 -460 -60 -432 -49 -817 39 -1305 6 -33 27 -123 46 -200 176
-691 523 -1309 1019 -1813 265 -270 457 -424 776 -624 115 -72 390 -213 540
-276 202 -86 582 -201 767 -233 29 -5 79 -14 111 -19 345 -61 766 -75 1079
-35 240 30 349 50 553 101 591 146 1157 436 1610 824 104 89 356 338 434 428
168 197 351 451 436 607 18 33 36 65 40 70 20 26 163 323 205 425 56 137 119
318 146 418 80 301 87 335 122 607 52 402 46 723 -22 1160 -93 598 -380 1256
-770 1765 -151 198 -429 487 -621 647 -358 297 -804 547 -1259 704 -116 40
-180 59 -361 105 -327 84 -800 128 -1150 107z m650 -688 c69 -9 196 -32 282
-51 283 -62 483 -132 747 -260 1022 -497 1714 -1472 1853 -2609 20 -169 18
-636 -5 -805 -48 -360 -149 -700 -303 -1020 -247 -511 -593 -926 -1054 -1262
-849 -618 -1976 -795 -2980 -467 -1181 386 -2049 1391 -2255 2613 -71 419 -58
882 37 1296 220 968 855 1781 1742 2232 370 188 798 312 1198 347 154 14 590
6 738 -14z"/>
<path d="M3760 7183 c-484 -47 -858 -154 -1235 -352 -1305 -685 -1973 -2162
-1625 -3591 295 -1208 1280 -2144 2499 -2375 251 -48 614 -67 861 -46 983 84
1855 599 2398 1416 498 748 656 1669 437 2545 -329 1314 -1471 2286 -2820
2400 -111 9 -434 11 -515 3z m-427 -923 c14 -11 29 -35 32 -53 12 -55 81 -190
128 -248 84 -105 224 -192 360 -224 80 -19 215 -19 297 1 138 32 281 125 366
237 49 65 107 179 119 234 3 18 18 42 32 53 24 18 40 20 212 20 212 0 241 -8
275 -71 19 -36 19 -39 2 -127 -27 -143 -31 -279 -12 -412 21 -139 50 -231 119
-370 47 -96 52 -112 55 -186 4 -76 1 -92 -47 -238 -103 -314 -188 -710 -198
-922 -9 -181 18 -280 211 -777 60 -155 96 -261 96 -285 0 -40 -30 -98 -64
-122 -11 -8 -64 -31 -117 -51 -399 -151 -637 -404 -770 -818 -38 -117 -65
-153 -125 -170 -52 -15 -556 -15 -608 0 -60 17 -87 53 -125 170 -91 283 -231
489 -436 642 -91 67 -233 142 -350 183 -44 15 -92 36 -106 46 -33 22 -59 75
-59 120 0 19 43 145 96 283 181 472 214 583 214 729 0 208 -96 665 -214 1019
-52 153 -51 223 5 338 61 125 105 243 125 339 25 117 25 341 1 472 -18 95 -18
99 0 135 31 65 60 73 274 73 172 0 188 -2 212 -20z"/>
<path d="M2974 6123 c29 -97 35 -382 11 -514 -22 -116 -69 -257 -121 -362 -64
-127 -65 -145 -10 -312 58 -180 110 -372 141 -526 14 -68 27 -124 29 -126 2
-3 441 -5 976 -6 840 -1 973 1 980 13 4 8 11 37 15 65 13 89 93 396 144 556
28 86 51 172 51 191 0 21 -18 72 -46 129 -59 120 -109 269 -129 383 -24 137
-19 375 10 504 5 22 5 22 -125 22 l-130 0 0 -207 c0 -224 -10 -295 -53 -403
-73 -179 -204 -318 -386 -410 -185 -93 -443 -99 -632 -14 -67 30 -87 61 -67
102 20 42 57 49 116 24 237 -102 513 -50 698 133 121 119 181 258 190 440 l5
100 -41 -47 c-171 -195 -445 -302 -688 -270 -200 27 -373 116 -503 260 l-51
57 6 -102 c8 -133 41 -237 106 -337 28 -42 50 -85 50 -96 0 -29 -36 -60 -69
-60 -53 0 -132 115 -187 275 -27 77 -28 89 -32 318 l-4 237 -130 0 c-119 0
-129 -1 -124 -17z"/>
<path d="M3054 4113 c3 -16 9 -79 12 -140 l7 -113 649 0 c635 0 648 0 668 -20
26 -26 26 -72 -1 -96 -20 -18 -48 -19 -676 -19 -569 0 -657 -2 -664 -15 -5 -8
-22 -60 -37 -115 -16 -55 -80 -231 -142 -392 -61 -161 -110 -300 -108 -310 2
-12 31 -28 90 -49 273 -98 508 -277 658 -501 83 -123 121 -201 176 -358 l42
-120 273 0 272 0 42 120 c82 236 175 387 334 545 150 149 299 243 499 314 68
25 88 36 90 52 2 12 -39 131 -91 265 -113 291 -152 399 -176 493 l-18 71 -163
1 c-157 1 -164 1 -182 23 -24 30 -23 66 2 91 18 18 33 20 169 20 l148 0 7 108
c3 59 9 122 12 140 l6 32 -952 0 -952 0 6 -27z"/>
</g>
</svg>
